<svg width="346" height="362" viewBox="0 0 346 362" fill="none" xmlns="http://www.w3.org/2000/svg">
<path d="M179.512 99.7999C179.512 153.6 144.912 197.1 102.212 197.1C82.912 197.1 64.4121 193.8 50.9121 179.1C34.4121 161.3 24.9121 129.3 24.9121 99.7999C24.9121 46 59.512 2.49993 102.212 2.49993C144.912 2.39993 179.512 46 179.512 99.7999Z" fill="#995F2F"/>
<path d="M102.212 199.6C85.512 199.6 64.412 197.5 49.012 180.8C32.812 163.2 22.312 131.4 22.312 99.8C22.312 44.8 58.112 0 102.112 0C146.112 0 181.912 44.8 181.912 99.8C181.912 154.8 146.212 199.6 102.212 199.6ZM102.212 4.89999C60.912 4.89999 27.412 47.4 27.412 99.7C27.412 130.2 37.312 160.6 52.712 177.3C66.712 192.5 86.512 194.5 102.212 194.5C143.512 194.5 177.012 152 177.012 99.7C177.012 47.5 143.412 4.89999 102.212 4.89999Z" fill="black"/>
<path d="M115.212 176.4C145.588 176.4 170.212 147.612 170.212 112.1C170.212 76.5881 145.588 47.8 115.212 47.8C84.8363 47.8 60.2119 76.5881 60.2119 112.1C60.2119 147.612 84.8363 176.4 115.212 176.4Z" fill="black"/>
<path d="M343.512 99.7999C343.512 153.6 308.912 197.1 266.212 197.1C246.912 197.1 228.412 193.8 214.912 179.1C198.412 161.3 188.912 129.3 188.912 99.7999C188.912 46 223.512 2.49993 266.212 2.49993C308.912 2.39993 343.512 46 343.512 99.7999Z" fill="#995F2F"/>
<path d="M266.212 199.6C249.512 199.6 228.412 197.5 213.012 180.8C196.812 163.2 186.312 131.4 186.312 99.8C186.312 44.8 222.112 0 266.112 0C310.112 0 345.912 44.8 345.912 99.8C345.912 154.8 310.212 199.6 266.212 199.6ZM266.212 4.89999C224.912 4.89999 191.412 47.4 191.412 99.7C191.412 130.2 201.312 160.6 216.712 177.3C230.712 192.5 250.512 194.5 266.212 194.5C307.512 194.5 341.012 152 341.012 99.7C341.012 47.5 307.412 4.89999 266.212 4.89999Z" fill="black"/>
<path d="M269.212 176.4C299.588 176.4 324.212 147.612 324.212 112.1C324.212 76.5881 299.588 47.8 269.212 47.8C238.836 47.8 214.212 76.5881 214.212 112.1C214.212 147.612 238.836 176.4 269.212 176.4Z" fill="black"/>
<path d="M112.212 35.8L98.2119 81.8L111.512 105.1L140.812 77.8L112.212 35.8Z" fill="white"/>
<path d="M110.912 109.1L95.512 82.1001L111.312 30.1001L144.112 78.2001L110.912 109.1ZM100.912 81.5001L112.112 101.2L137.612 77.5001L113.112 41.6001L100.912 81.5001Z" fill="black"/>
<path d="M103.512 163.1C111.962 163.1 118.812 156.25 118.812 147.8C118.812 139.35 111.962 132.5 103.512 132.5C95.062 132.5 88.2119 139.35 88.2119 147.8C88.2119 156.25 95.062 163.1 103.512 163.1Z" fill="white"/>
<path d="M103.512 165.6C93.712 165.6 85.7119 157.6 85.7119 147.8C85.7119 138 93.712 130 103.512 130C113.312 130 121.312 138 121.312 147.8C121.312 157.6 113.312 165.6 103.512 165.6ZM103.512 134.9C96.412 134.9 90.7119 140.7 90.7119 147.7C90.7119 154.7 96.512 160.5 103.512 160.5C110.512 160.5 116.312 154.7 116.312 147.7C116.312 140.7 110.612 134.9 103.512 134.9Z" fill="black"/>
<path d="M281.512 36.4001L267.512 82.4001L280.812 105.8L310.212 78.4001L281.512 36.4001Z" fill="white"/>
<path d="M280.212 109.7L264.812 82.7002L280.612 30.7002L313.412 78.8002L280.212 109.7ZM270.212 82.1002L281.412 101.8L306.912 78.1002L282.412 42.2002L270.212 82.1002Z" fill="black"/>
<path d="M270.212 163.1C278.662 163.1 285.512 156.25 285.512 147.8C285.512 139.35 278.662 132.5 270.212 132.5C261.762 132.5 254.912 139.35 254.912 147.8C254.912 156.25 261.762 163.1 270.212 163.1Z" fill="white"/>
<path d="M270.212 165.6C260.412 165.6 252.412 157.6 252.412 147.8C252.412 138 260.412 130 270.212 130C280.012 130 288.012 138 288.012 147.8C288.012 157.6 280.012 165.6 270.212 165.6ZM270.212 134.9C263.112 134.9 257.412 140.7 257.412 147.7C257.412 154.7 263.212 160.5 270.212 160.5C277.312 160.5 283.012 154.7 283.012 147.7C283.012 140.7 277.212 134.9 270.212 134.9Z" fill="black"/>
<path d="M25.312 269.5C44.212 289.6 65.812 304.5 89.212 314.5C112.512 324.4 137.512 329.3 162.512 329.4C187.512 329.4 212.512 324.7 235.912 314.9C259.312 305.1 281.012 290.3 300.112 270.3C300.912 269.5 302.212 269.5 303.012 270.2C303.612 270.8 303.812 271.6 303.512 272.4C294.012 299.4 273.112 322.5 247.912 337.9C222.512 353.4 192.412 361.4 162.512 361.3C132.612 361.2 102.612 353.1 77.3121 337.4C52.1121 321.9 31.412 298.6 22.012 271.6C21.612 270.5 22.212 269.4 23.312 269C24.012 268.7 24.812 268.9 25.312 269.5Z" fill="black"/>
<path d="M0.111936 281.6C-0.388064 276.7 0.811973 272.1 3.21197 267.9C5.61197 263.8 9.31197 260.1 13.712 257.8C18.112 255.6 23.1119 254.3 27.8119 254.6C30.2119 254.5 32.4119 255.3 34.6119 255.7C36.8119 256.4 38.9119 257.3 40.8119 258.5C41.8119 259.1 42.112 260.4 41.512 261.4C41.212 261.8 40.812 262.2 40.412 262.3L40.1119 262.4C38.0119 263.1 36.112 263.4 34.212 263.9C32.412 264.5 30.512 264.7 28.912 265.4C25.512 266.3 22.6119 267.7 19.8119 269.1C17.0119 270.6 14.512 272.4 11.912 274.7C9.31198 276.9 6.81199 279.7 3.91198 282.5L3.61194 282.8C2.81194 283.6 1.51194 283.6 0.611936 282.8C0.311936 282.5 0.111936 282.1 0.111936 281.6Z" fill="black"/>
<path d="M321.212 283.5C318.412 280.6 315.912 277.8 313.312 275.6C310.712 273.4 308.212 271.5 305.412 270C302.612 268.6 299.712 267.2 296.312 266.3C294.712 265.7 292.812 265.4 291.012 264.8C289.112 264.3 287.212 264 285.112 263.3L284.812 263.2C283.712 262.8 283.112 261.6 283.512 260.5C283.712 260 284.012 259.6 284.412 259.4C286.312 258.2 288.412 257.4 290.612 256.6C292.812 256.2 295.112 255.5 297.412 255.6C302.112 255.3 307.012 256.6 311.412 258.9C315.812 261.2 319.512 264.9 321.912 269C324.312 273.2 325.512 277.8 325.012 282.7C324.912 283.9 323.812 284.7 322.712 284.6C322.212 284.5 321.812 284.3 321.412 284L321.212 283.5Z" fill="black"/>
</svg>
