<svg width="349" height="363" viewBox="0 0 349 363" fill="none" xmlns="http://www.w3.org/2000/svg">
<path d="M211.156 84.0304C211.156 84.0304 133.449 -9.21835 7.43347 4.63945C7.43347 4.63945 -40.8746 290.473 193.931 268.844L254.413 257.577C254.413 257.577 418.505 215.226 305.311 24.4548C305.311 24.4548 282.906 15.7775 211.156 84.0304Z" fill="#91D037"/>
<path d="M169.453 273.248C119.073 273.248 79.3128 257.706 50.8201 227.012C13.9091 187.122 3.15957 128.583 0.698842 86.4913C-2.02091 41.0325 4.06617 4.51008 4.19569 4.12154L4.58421 1.66082L7.04497 1.40182C73.0962 -5.85087 125.678 16.4252 158.186 36.3701C186.937 53.9838 205.199 72.6335 211.286 79.3681C280.445 14.2235 303.887 20.4401 306.348 21.4762L307.384 21.8647L307.902 22.7713C347.144 88.952 357.764 144.901 339.503 188.935C316.709 244.108 257.521 260.038 254.931 260.685H254.672L193.931 271.953C185.772 272.859 177.483 273.248 169.453 273.248ZM10.2828 7.61838C8.98765 16.4252 4.97279 48.1557 7.30401 86.2323C9.76474 127.288 20.1257 184.143 55.612 222.609C87.213 256.67 133.578 271.046 193.543 265.607L253.766 254.469C256.485 253.692 312.823 237.762 333.934 186.475C351.159 144.642 340.927 91.0242 303.498 27.3042C298.706 26.9157 274.099 28.7289 213.617 86.3618L211.156 88.693L208.954 86.1028C208.825 85.8437 189.269 62.7906 154.948 41.8096C123.476 22.6418 73.2257 1.4018 10.2828 7.61838Z" fill="black"/>
<path d="M52.3743 71.0792L111.043 52.9475L223.33 244.626L280.316 99.5719L298.447 105.659L255.19 266.254L261.277 352.509L181.886 359.503L175.799 268.844L52.3743 71.0792Z" fill="#996132"/>
<path d="M178.778 363L172.562 269.881L47.3232 69.2663L112.468 49.1919L222.683 237.373L278.373 95.6868L302.333 103.717L258.558 266.772L264.774 355.747L178.778 363ZM57.2957 72.8926L178.908 267.679L184.865 356.006L257.781 349.66L251.952 265.995L252.082 265.477L294.432 107.861L282.129 103.717L223.848 252.137L109.489 56.8331L57.2957 72.8926Z" fill="black"/>
</svg>
