<?xml version="1.0" encoding="utf-8"?>
<!-- Generator: Adobe Illustrator 27.5.0, SVG Export Plug-In . SVG Version: 6.00 Build 0)  -->
<svg version="1.1" xmlns="http://www.w3.org/2000/svg" xmlns:xlink="http://www.w3.org/1999/xlink" x="0px" y="0px"
	 viewBox="0 0 500 500" style="enable-background:new 0 0 500 500;" xml:space="preserve">
<g id="Background_Simple">
	<g>
		<path id="XMLID_965_" style="fill:#92E3A9;" d="M205.06,44.142c0,0,46.717-9.469,89.228,0
			c25.985,5.788,80.756,19.516,93.679,50.637c12.923,31.121-49.3,57.672-18.725,89.241c13.187,13.616,76.482,31.582,72.922,119.917
			c-3.56,88.336-96.299,142.193-225.182,139.792C88.099,441.329,13.725,324.143,63.571,266.428
			c49.846-57.715,71.302-57.879,48.706-104.874S121.054,57.593,205.06,44.142z"/>
		<path id="XMLID_964_" style="opacity:0.7;fill:#FFFFFF;" d="M205.06,44.142c0,0,46.717-9.469,89.228,0
			c25.985,5.788,80.756,19.516,93.679,50.637c12.923,31.121-49.3,57.672-18.725,89.241c13.187,13.616,76.482,31.582,72.922,119.917
			c-3.56,88.336-96.299,142.193-225.182,139.792C88.099,441.329,13.725,324.143,63.571,266.428
			c49.846-57.715,71.302-57.879,48.706-104.874S121.054,57.593,205.06,44.142z"/>
	</g>
</g>
<g id="Graphics">
	<g>
		<g>
			<polygon style="fill:none;stroke:#263238;stroke-linecap:round;stroke-linejoin:round;stroke-miterlimit:10;" points="
				115.944,188.193 124.645,213.634 82.92,227.903 72.596,197.711 114.32,183.443 			"/>
			<polygon style="fill:none;stroke:#263238;stroke-linecap:round;stroke-linejoin:round;stroke-miterlimit:10;" points="
				120.276,200.858 124.645,213.634 82.92,227.903 80.78,221.643 89.19,208.902 102.878,214.23 112.652,197.747 			"/>
			<path style="fill:none;stroke:#263238;stroke-linecap:round;stroke-linejoin:round;stroke-miterlimit:10;" d="M94.225,199.253
				c0.811,2.373-0.454,4.955-2.827,5.766c-2.373,0.811-4.955-0.455-5.766-2.828c-0.811-2.373,0.454-4.955,2.828-5.766
				C90.832,195.614,93.413,196.88,94.225,199.253z"/>
		</g>
		<g>
			<polygon style="fill:none;stroke:#263238;stroke-linecap:round;stroke-linejoin:round;stroke-miterlimit:10;" points="
				364.565,397.003 358.813,423.268 315.737,413.835 322.563,382.665 365.639,392.099 			"/>
			<g>
				
					<line style="fill:none;stroke:#263238;stroke-linecap:round;stroke-linejoin:round;stroke-miterlimit:10;" x1="324.276" y1="407.112" x2="353.868" y2="413.592"/>
				<path style="fill:none;stroke:#263238;stroke-linecap:round;stroke-linejoin:round;stroke-miterlimit:10;" d="M326.703,393.303
					c0,0-3.011,13.75,12.354,17.115c15.365,3.365,18.376-10.385,18.376-10.385"/>
				<path style="fill:#FFFFFF;stroke:#263238;stroke-linecap:round;stroke-linejoin:round;stroke-miterlimit:10;" d="
					M327.998,393.587c-0.156,0.715-0.863,1.168-1.578,1.011c-0.715-0.157-1.168-0.863-1.011-1.578
					c0.157-0.715,0.863-1.168,1.578-1.011C327.702,392.165,328.154,392.872,327.998,393.587z"/>
				<path style="fill:#FFFFFF;stroke:#263238;stroke-linecap:round;stroke-linejoin:round;stroke-miterlimit:10;" d="
					M358.729,400.317c-0.156,0.715-0.863,1.168-1.578,1.011c-0.715-0.157-1.168-0.863-1.011-1.578
					c0.156-0.715,0.863-1.168,1.578-1.011C358.432,398.895,358.885,399.602,358.729,400.317z"/>
				<g>
					
						<rect x="322.527" y="405.888" transform="matrix(0.9768 0.2139 -0.2139 0.9768 94.5727 -59.8228)" style="fill:#FFFFFF;stroke:#263238;stroke-linecap:round;stroke-linejoin:round;stroke-miterlimit:10;" width="2.33" height="2.33"/>
					
						<rect x="337.892" y="409.253" transform="matrix(0.9769 0.2139 -0.2139 0.9769 95.6443 -63.0299)" style="fill:#FFFFFF;stroke:#263238;stroke-linecap:round;stroke-linejoin:round;stroke-miterlimit:10;" width="2.33" height="2.33"/>
					
						<rect x="353.258" y="412.618" transform="matrix(0.9768 0.2139 -0.2139 0.9768 96.7238 -66.2411)" style="fill:#FFFFFF;stroke:#263238;stroke-linecap:round;stroke-linejoin:round;stroke-miterlimit:10;" width="2.33" height="2.33"/>
				</g>
			</g>
		</g>
		<g>
			<polygon style="fill:none;stroke:#263238;stroke-linecap:round;stroke-linejoin:round;stroke-miterlimit:10;" points="
				165.251,111.273 154.365,135.858 114.044,118.003 126.963,88.827 167.284,106.682 			"/>
			<g>
				<path style="fill:#263238;" d="M144.082,121.41c-0.773,1.745-3.558,2.204-6.22,1.025c-2.662-1.179-4.194-3.55-3.421-5.295
					c0.773-1.745,3.558-2.204,6.22-1.025C143.323,117.294,144.855,119.664,144.082,121.41z"/>
				<path style="fill:#263238;" d="M146.121,102.201l-10.758,15.348l-0.922-0.408l7.865-11.223l2.043-2.913
					c1.025-0.299,1.686-0.745,1.765-0.799L146.121,102.201z"/>
				<path style="fill:#263238;" d="M146.115,102.206l-2.617,3.703c0,0-0.457,0.07-1.191,0.009c-0.845-0.066-2.059-0.305-3.369-1.022
					c-2.376-1.298-4.409,0.223-4.527,0.314c0.128-0.164,2.666-3.332,6.168-2.219c1.458,0.466,2.782,0.306,3.772,0.013
					C145.376,102.706,146.036,102.26,146.115,102.206z"/>
			</g>
		</g>
		<g>
			<polygon style="fill:none;stroke:#263238;stroke-linecap:round;stroke-linejoin:round;stroke-miterlimit:10;" points="
				434.027,310.612 424.641,335.808 383.318,320.415 394.456,290.514 435.78,305.907 			"/>
			<g>
				<polyline style="fill:none;stroke:#263238;stroke-linecap:round;stroke-linejoin:round;stroke-miterlimit:10;" points="
					406.224,305.075 395.861,309.814 400.599,320.177 				"/>
				<polyline style="fill:none;stroke:#263238;stroke-linecap:round;stroke-linejoin:round;stroke-miterlimit:10;" points="
					411.731,324.324 422.095,319.586 417.357,309.222 				"/>
				
					<line style="fill:none;stroke:#263238;stroke-linecap:round;stroke-linejoin:round;stroke-miterlimit:10;" x1="413.604" y1="307.804" x2="404.351" y2="321.595"/>
			</g>
		</g>
		<g>
			<polygon style="fill:none;stroke:#263238;stroke-linecap:round;stroke-linejoin:round;stroke-miterlimit:10;" points="
				392.8,76.474 383.591,101.736 342.161,86.632 353.09,56.653 394.52,71.757 			"/>
			<g>
				<path style="fill:none;stroke:#263238;stroke-linecap:round;stroke-linejoin:round;stroke-miterlimit:10;" d="M363.446,78.375
					c0,0-0.494-2.833-4.679-2.212c-3.861,0.572-4.958,4.918-1.701,6.105c3.831,1.397,6.836-1.836,10.56-5.022
					c3.893-3.331,7.427-6.915,7.874-7.337c0,0-8.773,15.69-9.908,17.757c-1.135,2.067,2.288,1.311,2.909,0.393"/>
				<path style="fill:none;stroke:#263238;stroke-linecap:round;stroke-linejoin:round;stroke-miterlimit:10;" d="M378.265,83.041
					c0,0-3.824-2.595-6.966,1.183c-1.218,1.465-0.577,3.022,0.475,3.406c2.695,0.982,4.367-0.204,7.207-4.329
					c0,0-3.932,5.522-3.09,5.829c1.263,0.46,2.192-0.489,2.192-0.489"/>
				
					<line style="fill:none;stroke:#263238;stroke-linecap:round;stroke-linejoin:round;stroke-miterlimit:10;" x1="366.436" y1="78.729" x2="373.38" y2="81.26"/>
			</g>
		</g>
		<g>
			<polygon style="fill:none;stroke:#263238;stroke-linecap:round;stroke-linejoin:round;stroke-miterlimit:10;" points="
				119.355,368.445 76.276,359.022 82.155,332.145 125.383,341.6 			"/>
			<g>
				
					<line style="fill:none;stroke:#263238;stroke-linecap:round;stroke-linejoin:round;stroke-miterlimit:10;" x1="91.92" y1="338.873" x2="117.097" y2="344.38"/>
				
					<line style="fill:none;stroke:#263238;stroke-linecap:round;stroke-linejoin:round;stroke-miterlimit:10;" x1="87.85" y1="340.514" x2="116.569" y2="346.796"/>
				
					<line style="fill:none;stroke:#263238;stroke-linecap:round;stroke-linejoin:round;stroke-miterlimit:10;" x1="87.322" y1="342.93" x2="116.04" y2="349.212"/>
				
					<line style="fill:none;stroke:#263238;stroke-linecap:round;stroke-linejoin:round;stroke-miterlimit:10;" x1="86.793" y1="345.346" x2="115.512" y2="351.627"/>
				
					<line style="fill:none;stroke:#263238;stroke-linecap:round;stroke-linejoin:round;stroke-miterlimit:10;" x1="86.265" y1="347.762" x2="114.984" y2="354.043"/>
				
					<line style="fill:none;stroke:#263238;stroke-linecap:round;stroke-linejoin:round;stroke-miterlimit:10;" x1="85.736" y1="350.177" x2="114.455" y2="356.459"/>
				
					<line style="fill:none;stroke:#263238;stroke-linecap:round;stroke-linejoin:round;stroke-miterlimit:10;" x1="85.208" y1="352.593" x2="113.927" y2="358.875"/>
				
					<line style="fill:none;stroke:#263238;stroke-linecap:round;stroke-linejoin:round;stroke-miterlimit:10;" x1="84.68" y1="355.009" x2="109.857" y2="360.516"/>
			</g>
		</g>
	</g>
</g>
<g id="Drawer">
	<g>
		<polygon style="fill:#263238;" points="330.576,167.967 169.423,167.967 149.312,67.934 350.688,67.934 		"/>
		<g>
			<g>
				<defs>
					<polyline id="XMLID_957_" points="164.429,71.184 134.753,273.014 365.247,273.014 335.571,71.184 					"/>
				</defs>
				<use xlink:href="#XMLID_957_"  style="overflow:visible;fill:#92E3A9;"/>
				<clipPath id="XMLID_00000107575699077038494540000009434277029035257769_">
					<use xlink:href="#XMLID_957_"  style="overflow:visible;"/>
				</clipPath>
				
					<polygon style="opacity:0.3;clip-path:url(#XMLID_00000107575699077038494540000009434277029035257769_);fill-opacity:0.7;" points="
					365.25,273.01 134.75,273.01 147.16,188.61 352.84,188.61 				"/>
				
					<use xlink:href="#XMLID_957_"  style="overflow:visible;fill:none;stroke:#263238;stroke-linecap:round;stroke-linejoin:round;stroke-miterlimit:10;"/>
			</g>
			<polygon style="fill:#263238;" points="329.3,71.184 170.7,71.184 143.199,273.014 356.801,273.014 			"/>
		</g>
		<g>
			<path style="fill:#BFBFBF;stroke:#263238;stroke-linecap:round;stroke-linejoin:round;stroke-miterlimit:10;" d="M313.632,86.564
				h-86.088l-0.976-2.205c-0.542-1.224-1.754-2.013-3.093-2.013h-19.554c-1.088,0-1.969,0.882-1.969,1.969v2.249h-15.584
				c-1.196,0-2.093,1.095-1.857,2.268l12.716,63.248h105.546l12.716-63.248C315.725,87.659,314.828,86.564,313.632,86.564z"/>
			<g>
				<defs>
					<path id="XMLID_962_" d="M316.88,91.41l-1.1,5.46l-11.3,56.19c-0.34,1.73-1.86,2.98-3.63,2.98h-101.7
						c-1.77,0-3.29-1.25-3.63-2.98l-11.57-57.52l-0.83-4.13c-0.23-1.17,0.66-2.27,1.86-2.27h130.04
						C316.22,89.14,317.11,90.24,316.88,91.41z"/>
				</defs>
				<use xlink:href="#XMLID_962_"  style="overflow:visible;fill:#FFFFFF;"/>
				<clipPath id="XMLID_00000059283161223535339520000016221469887358066830_">
					<use xlink:href="#XMLID_962_"  style="overflow:visible;"/>
				</clipPath>
				<path style="opacity:0.4;clip-path:url(#XMLID_00000059283161223535339520000016221469887358066830_);fill:#92E3A9;" d="
					M315.78,96.87l-11.3,56.19c-0.34,1.73-1.86,2.98-3.63,2.98h-101.7c-1.77,0-3.29-1.25-3.63-2.98l-11.57-57.52L315.78,96.87z"/>
				
					<use xlink:href="#XMLID_962_"  style="overflow:visible;fill:none;stroke:#263238;stroke-linecap:round;stroke-linejoin:round;stroke-miterlimit:10;"/>
			</g>
			<path style="fill:#BFBFBF;stroke:#263238;stroke-linecap:round;stroke-linejoin:round;stroke-miterlimit:10;" d="
				M315.156,101.134h-88.151l-0.999-2.198c-0.555-1.22-1.796-2.007-3.167-2.007h-20.022c-1.114,0-2.016,0.879-2.016,1.963v2.242
				h-15.957c-1.225,0-2.143,1.092-1.902,2.261l13.021,63.06h108.075l13.021-63.06C317.3,102.226,316.381,101.134,315.156,101.134z"
				/>
			<g>
				<defs>
					<path id="XMLID_963_" d="M318.48,106.15l-1.1,5.34l-11.59,56.13c-0.36,1.72-1.91,2.96-3.72,2.96H197.93
						c-1.81,0-3.36-1.24-3.72-2.96l-11.63-56.32l-1.06-5.15c-0.24-1.17,0.68-2.27,1.9-2.27h133.16
						C317.8,103.88,318.72,104.98,318.48,106.15z"/>
				</defs>
				<use xlink:href="#XMLID_963_"  style="overflow:visible;fill:#FFFFFF;"/>
				<clipPath id="XMLID_00000054973691934012385320000014376377836197660805_">
					<use xlink:href="#XMLID_963_"  style="overflow:visible;"/>
				</clipPath>
				<path style="opacity:0.4;clip-path:url(#XMLID_00000054973691934012385320000014376377836197660805_);fill:#92E3A9;" d="
					M317.38,111.49l-11.59,56.13c-0.36,1.72-1.91,2.96-3.72,2.96H197.93c-1.81,0-3.36-1.24-3.72-2.96l-11.63-56.32L317.38,111.49z"
					/>
				
					<use xlink:href="#XMLID_963_"  style="overflow:visible;fill:none;stroke:#263238;stroke-linecap:round;stroke-linejoin:round;stroke-miterlimit:10;"/>
			</g>
			<path style="fill:#BFBFBF;stroke:#263238;stroke-linecap:round;stroke-linejoin:round;stroke-miterlimit:10;" d="
				M316.681,115.704h-90.214l-1.022-2.192c-0.568-1.217-1.838-2.001-3.241-2.001h-20.491c-1.14,0-2.064,0.876-2.064,1.957v2.236
				h-16.33c-1.254,0-2.193,1.088-1.946,2.254l13.325,62.873h110.604l13.325-62.873C318.874,116.792,317.935,115.704,316.681,115.704
				z"/>
			<path style="fill:#FFFFFF;stroke:#263238;stroke-linecap:round;stroke-linejoin:round;stroke-miterlimit:10;" d="
				M318.138,118.628H181.862c-1.254,0-2.193,1.089-1.946,2.254l12.99,61.289c0.364,1.719,1.956,2.956,3.805,2.956h106.578
				c1.849,0,3.441-1.237,3.805-2.956l12.99-61.289C320.331,119.717,319.391,118.628,318.138,118.628z"/>
			<path style="fill:#BFBFBF;stroke:#263238;stroke-linecap:round;stroke-linejoin:round;stroke-miterlimit:10;" d="
				M318.206,127.274h-92.277l-1.046-2.185c-0.581-1.213-1.88-1.995-3.315-1.995h-20.959c-1.166,0-2.111,0.874-2.111,1.952v2.229
				h-16.704c-1.282,0-2.243,1.085-1.991,2.248l13.63,62.685h113.133l13.63-62.685C320.449,128.359,319.488,127.274,318.206,127.274z
				"/>
			<path style="fill:#FFFFFF;stroke:#263238;stroke-linecap:round;stroke-linejoin:round;stroke-miterlimit:10;" d="
				M319.696,130.372H180.304c-1.282,0-2.243,1.085-1.991,2.247l13.287,61.106c0.373,1.714,2.001,2.947,3.892,2.947h109.016
				c1.891,0,3.519-1.233,3.892-2.947l13.287-61.106C321.939,131.457,320.978,130.372,319.696,130.372z"/>
			<path style="fill:#BFBFBF;stroke:#263238;stroke-linecap:round;stroke-linejoin:round;stroke-miterlimit:10;" d="
				M319.731,138.843h-94.34l-1.069-2.178c-0.594-1.209-1.922-1.989-3.389-1.989h-21.428c-1.192,0-2.158,0.871-2.158,1.946v2.222
				h-17.077c-1.311,0-2.294,1.082-2.035,2.241l13.935,62.497h115.662l13.935-62.497
				C322.024,139.925,321.042,138.843,319.731,138.843z"/>
			<g>
				<defs>
					<path id="XMLID_958_" d="M321.25,142.12h-142.5c-1.31,0-2.3,1.08-2.04,2.24l3.34,14.99l10.24,45.93
						c0.39,1.71,2.05,2.94,3.98,2.94h111.46c1.93,0,3.59-1.23,3.98-2.94l5.02-22.53l8.56-38.39
						C323.55,143.2,322.56,142.12,321.25,142.12z"/>
				</defs>
				<use xlink:href="#XMLID_958_"  style="overflow:visible;fill:#FFFFFF;"/>
				<clipPath id="XMLID_00000044862399555698001990000013113495920661940926_">
					<use xlink:href="#XMLID_958_"  style="overflow:visible;"/>
				</clipPath>
				<path style="opacity:0.4;clip-path:url(#XMLID_00000044862399555698001990000013113495920661940926_);fill:#92E3A9;" d="
					M180.05,159.35l10.24,45.93c0.39,1.71,2.05,2.94,3.98,2.94h111.46c1.93,0,3.59-1.23,3.98-2.94l5.02-22.53L180.05,159.35z"/>
				
					<use xlink:href="#XMLID_958_"  style="overflow:visible;fill:none;stroke:#263238;stroke-linecap:round;stroke-linejoin:round;stroke-miterlimit:10;"/>
			</g>
			<g>
				<path style="fill:#BFBFBF;stroke:#263238;stroke-linecap:round;stroke-linejoin:round;stroke-miterlimit:10;" d="
					M221.771,210.385l-1.26-2.097c-0.7-1.164-2.179-1.868-3.772-1.794l-23.277,1.07c-1.295,0.059-2.305,0.967-2.256,2.028
					l0.101,2.193l-18.551,0.853c-1.424,0.065-2.443,1.182-2.109,2.313l17.972,60.986l125.646-5.774l12.303-62.377
					c0.228-1.157-0.889-2.175-2.313-2.11L221.771,210.385z"/>
			</g>
			<g>
				<defs>
					<path id="XMLID_960_" d="M328.4,211.67l-1.42,7.18l-10.57,53.63c-0.34,1.71-2.09,3-4.19,3.1l-121.07,5.56
						c-2.1,0.1-3.97-1.03-4.46-2.7l-16.71-56.7l-0.81-2.75c-0.33-1.13,0.69-2.25,2.11-2.31l154.81-7.12
						C327.52,209.5,328.63,210.52,328.4,211.67z"/>
				</defs>
				<use xlink:href="#XMLID_960_"  style="overflow:visible;fill:#FFFFFF;"/>
				<clipPath id="XMLID_00000119085331222512588150000016550851555010055839_">
					<use xlink:href="#XMLID_960_"  style="overflow:visible;"/>
				</clipPath>
				<path style="opacity:0.4;clip-path:url(#XMLID_00000119085331222512588150000016550851555010055839_);fill:#92E3A9;" d="
					M326.98,218.85l-10.57,53.63c-0.34,1.71-2.09,3-4.19,3.1l-121.07,5.56c-2.1,0.1-3.97-1.03-4.46-2.7l-16.71-56.7L326.98,218.85z"
					/>
				
					<use xlink:href="#XMLID_960_"  style="overflow:visible;fill:none;stroke:#263238;stroke-linecap:round;stroke-linejoin:round;stroke-miterlimit:10;"/>
			</g>
			<g>
				<path style="fill:#BFBFBF;stroke:#263238;stroke-linecap:round;stroke-linejoin:round;stroke-miterlimit:10;" d="
					M224.438,224.311l-1.072-2.205c-0.595-1.224-2.027-2.068-3.652-2.153l-23.738-1.241c-1.32-0.069-2.435,0.732-2.491,1.789
					l-0.114,2.186l-18.919-0.989c-1.452-0.076-2.596,0.931-2.37,2.086l12.223,62.282l128.133,6.699l18.651-60.668
					c0.346-1.125-0.687-2.246-2.139-2.322L224.438,224.311z"/>
			</g>
			<g>
				<defs>
					<path id="XMLID_961_" d="M332.56,236.32l-3.04,9.88l-15.14,49.26c-0.51,1.66-2.42,2.78-4.56,2.66l-123.47-6.45
						c-2.14-0.11-3.92-1.42-4.26-3.12l-10.45-53.27l-1.46-7.45c-0.23-1.15,0.92-2.16,2.37-2.08L330.42,234
						C331.87,234.08,332.91,235.2,332.56,236.32z"/>
				</defs>
				<use xlink:href="#XMLID_961_"  style="overflow:visible;fill:#FFFFFF;"/>
				<clipPath id="XMLID_00000116212945551044589710000015599648467741911982_">
					<use xlink:href="#XMLID_961_"  style="overflow:visible;"/>
				</clipPath>
				<path style="opacity:0.4;clip-path:url(#XMLID_00000116212945551044589710000015599648467741911982_);fill:#92E3A9;" d="
					M329.52,246.2l-15.14,49.26c-0.51,1.66-2.42,2.78-4.56,2.66l-123.47-6.45c-2.14-0.11-3.92-1.42-4.26-3.12l-10.45-53.27
					L329.52,246.2z"/>
				
					<use xlink:href="#XMLID_961_"  style="overflow:visible;fill:none;stroke:#263238;stroke-linecap:round;stroke-linejoin:round;stroke-miterlimit:10;"/>
			</g>
			<g>
				<path style="fill:#BFBFBF;stroke:#263238;stroke-linecap:round;stroke-linejoin:round;stroke-miterlimit:10;" d="
					M222.162,240.262l-1.209-2.139c-0.671-1.188-2.175-1.954-3.834-1.954H192.88c-1.348,0-2.441,0.855-2.441,1.911v2.182h-19.318
					c-1.483,0-2.595,1.063-2.302,2.201l15.763,61.371h130.837l15.763-61.371c0.292-1.138-0.819-2.201-2.302-2.201H222.162z"/>
			</g>
			<g>
				<path style="fill:#FFFFFF;stroke:#263238;stroke-linecap:round;stroke-linejoin:round;stroke-miterlimit:10;" d="
					M313.037,309.491H186.963c-2.187,0-4.07-1.207-4.501-2.885l-15.366-59.826c-0.292-1.138,0.819-2.201,2.302-2.201h161.204
					c1.483,0,2.594,1.063,2.302,2.201l-15.366,59.826C317.107,308.284,315.224,309.491,313.037,309.491z"/>
			</g>
			<g>
				<path style="fill:#BFBFBF;stroke:#263238;stroke-linecap:round;stroke-linejoin:round;stroke-miterlimit:10;" d="
					M221.624,254.832l-1.233-2.132c-0.684-1.184-2.217-1.948-3.908-1.948h-24.708c-1.374,0-2.488,0.853-2.488,1.905v2.175h-19.691
					c-1.512,0-2.645,1.059-2.347,2.194l16.067,61.184h133.366l16.068-61.184c0.298-1.134-0.835-2.194-2.347-2.194H221.624z"/>
			</g>
			<g>
				<path style="fill:#FFFFFF;stroke:#263238;stroke-linecap:round;stroke-linejoin:round;stroke-miterlimit:10;" d="
					M314.256,324.037H185.744c-2.229,0-4.149-1.204-4.588-2.877l-15.663-59.643c-0.298-1.134,0.835-2.194,2.347-2.194H332.16
					c1.512,0,2.645,1.059,2.347,2.194l-15.663,59.643C318.405,322.833,316.485,324.037,314.256,324.037z"/>
			</g>
		</g>
		<g>
			<g>
				<defs>
					<polygon id="XMLID_951_" points="340.37,392.967 159.63,392.967 120.07,280.776 379.93,280.776 					"/>
				</defs>
				<use xlink:href="#XMLID_951_"  style="overflow:visible;fill:#92E3A9;"/>
				<clipPath id="XMLID_00000049215137430903217620000004120826687543827876_">
					<use xlink:href="#XMLID_951_"  style="overflow:visible;"/>
				</clipPath>
				
					<polygon style="opacity:0.3;clip-path:url(#XMLID_00000049215137430903217620000004120826687543827876_);fill-opacity:0.7;" points="
					340.37,392.967 159.63,392.967 120.07,280.776 379.93,280.776 				"/>
				
					<use xlink:href="#XMLID_951_"  style="overflow:visible;fill:none;stroke:#263238;stroke-linecap:round;stroke-linejoin:round;stroke-miterlimit:10;"/>
			</g>
			<polygon style="fill:#92E3A9;stroke:#263238;stroke-linecap:round;stroke-linejoin:round;stroke-miterlimit:10;" points="
				376.491,266.014 123.509,266.014 120.07,280.776 379.93,280.776 			"/>
		</g>
		<g>
			<polygon style="fill:#BFBFBF;stroke:#263238;stroke-linecap:round;stroke-linejoin:round;stroke-miterlimit:10;" points="
				187.27,332.177 184.736,356.127 315.264,356.127 312.73,332.177 306.97,332.177 308.613,349.275 191.387,349.275 193.03,332.177 
							"/>
			<polygon style="fill:#757575;stroke:#263238;stroke-linecap:round;stroke-linejoin:round;stroke-miterlimit:10;" points="
				314.281,361.631 185.719,361.631 184.736,356.127 315.264,356.127 			"/>
			<polygon style="fill:#757575;stroke:#263238;stroke-linecap:round;stroke-linejoin:round;stroke-miterlimit:10;" points="
				306.97,332.177 306.165,338.526 306.97,349.275 308.613,349.275 			"/>
			<polygon style="fill:#757575;stroke:#263238;stroke-linecap:round;stroke-linejoin:round;stroke-miterlimit:10;" points="
				193.03,332.177 193.835,338.526 193.03,349.275 191.387,349.275 			"/>
		</g>
		<g>
			<polygon style="fill:#FFFFFF;stroke:#263238;stroke-linecap:round;stroke-linejoin:round;stroke-miterlimit:10;" points="
				292.055,320.162 207.945,320.162 203.931,299.838 296.069,299.838 			"/>
			<g>
				<path style="fill:#263238;" d="M232.42,312.942h0.032l0.554-8.613h2.564l0.753,11.947h-1.652l-0.596-8.436h-0.033l-0.578,8.436
					h-1.652l-2.017-8.313h-0.033l0.747,8.313h-1.525l-1.158-11.947h2.564L232.42,312.942z"/>
				<path style="fill:#263238;" d="M239.044,312.457l-2.733-8.128h1.928l1.645,5.603h0.033l1.138-5.603h1.76l-1.992,8.128
					l0.159,3.819h-1.747L239.044,312.457z"/>
				<path style="fill:#263238;" d="M248.044,309.795h2.323l-0.003,1.703h-2.305l0.042,4.778h-1.747l-0.201-11.947h4.877
					l-0.008,1.787h-3.01L248.044,309.795z"/>
				<path style="fill:#263238;" d="M251.921,304.329h1.844l-0.197,11.947h-1.747L251.921,304.329z"/>
				<path style="fill:#263238;" d="M255.105,304.329h1.844l-0.313,10.317h2.896l-0.071,1.63h-4.622L255.105,304.329z"/>
				<path style="fill:#263238;" d="M262.347,309.52h2.473l-0.113,1.707h-2.454l-0.189,3.419h3.041l-0.113,1.63h-4.766l0.563-11.947
					h5.028l-0.124,1.787h-3.16L262.347,309.52z"/>
				<path style="fill:#263238;" d="M269.452,304.185c1.795,0,2.606,1.148,2.414,3.13l-0.037,0.385h-1.717l0.045-0.508
					c0.079-0.882-0.224-1.219-0.806-1.219c-0.583,0-0.943,0.336-1.015,1.219c-0.072,0.892,0.236,1.552,1.324,2.638
					c1.374,1.38,1.751,2.358,1.622,3.694c-0.179,1.842-1.168,2.881-2.883,2.881c-1.715,0-2.528-1.039-2.394-2.881l0.052-0.715h1.678
					l-0.067,0.831c-0.067,0.826,0.261,1.121,0.821,1.121c0.56,0,0.938-0.295,1.011-1.121c0.075-0.848-0.223-1.484-1.302-2.548
					c-1.393-1.382-1.794-2.382-1.693-3.777C266.651,305.333,267.657,304.185,269.452,304.185z"/>
			</g>
		</g>
	</g>
</g>
<g id="Right_hand">
	<g>
		<g>
			<g>
				<defs>
					<path id="XMLID_959_" d="M255.632,123.533l-0.825-2.349c-0.458-1.304-1.735-2.271-3.258-2.467l-22.236-2.866
						c-1.237-0.159-2.353,0.593-2.493,1.681l-0.29,2.25l-17.721-2.284c-1.36-0.175-2.521,0.789-2.404,1.996l6.305,65.138
						l120.022,15.469l22.615-61.411c0.419-1.139-0.459-2.366-1.819-2.541L255.632,123.533z"/>
				</defs>
				<use xlink:href="#XMLID_959_"  style="overflow:visible;fill:#FFFFFF;"/>
				<clipPath id="XMLID_00000165215989315117243140000016055291465274440590_">
					<use xlink:href="#XMLID_959_"  style="overflow:visible;"/>
				</clipPath>
				<path style="opacity:0.4;clip-path:url(#XMLID_00000165215989315117243140000016055291465274440590_);fill:#92E3A9;" d="
					M255.632,123.533l-0.825-2.349c-0.458-1.304-1.735-2.271-3.258-2.467l-22.236-2.866c-1.237-0.159-2.353,0.593-2.493,1.681
					l-0.29,2.25l-17.721-2.284c-1.36-0.175-2.521,0.789-2.404,1.996l6.305,65.138l120.022,15.469l22.615-61.411
					c0.419-1.139-0.459-2.366-1.819-2.541L255.632,123.533z"/>
				
					<use xlink:href="#XMLID_959_"  style="overflow:visible;fill:none;stroke:#263238;stroke-linecap:round;stroke-linejoin:round;stroke-miterlimit:10;"/>
			</g>
			<g>
				<defs>
					<path id="XMLID_956_" d="M356.48,142.39l-20.47,55.59l-1.58,4.28c-0.62,1.68-2.51,2.7-4.51,2.44l-115.66-14.9
						c-2-0.26-3.57-1.73-3.74-3.51l-6.15-63.5c-0.11-1.21,1.05-2.17,2.41-2l98.42,12.69l49.46,6.37
						C356.02,140.03,356.9,141.26,356.48,142.39z"/>
				</defs>
				<use xlink:href="#XMLID_956_"  style="overflow:visible;fill:#FFFFFF;"/>
				<clipPath id="XMLID_00000116924329638739331520000006350078854982176176_">
					<use xlink:href="#XMLID_956_"  style="overflow:visible;"/>
				</clipPath>
				<path style="opacity:0.3;clip-path:url(#XMLID_00000116924329638739331520000006350078854982176176_);fill-opacity:0.7;" d="
					M356.48,142.39l-20.47,55.59c-14.51-3.43-15.06-12.47-17.49-17.15c-2.68-5.16-19.67-7.9-24.42-8.73
					c-4.75-0.84-7.64-5.64-7.64-5.64c-4.28-12.02,18.06-22.5,18.06-22.5c-0.44-1.65,0.21-7.06,0.68-10.48l49.46,6.37
					C356.02,140.03,356.9,141.26,356.48,142.39z"/>
				
					<use xlink:href="#XMLID_956_"  style="overflow:visible;fill:none;stroke:#263238;stroke-linecap:round;stroke-linejoin:round;stroke-miterlimit:10;"/>
			</g>
			<polygon style="fill:#92E3A9;stroke:#263238;stroke-linecap:round;stroke-linejoin:round;stroke-miterlimit:10;" points="
				226.121,139.901 227.703,179.198 241.945,181.044 243.616,141.879 			"/>
			<path style="fill:none;stroke:#263238;stroke-linecap:round;stroke-linejoin:round;stroke-miterlimit:10;" d="M234.809,176.314
				c0.439-1.366,0.055-2.89-0.693-4.114c-0.748-1.224-1.826-2.206-2.89-3.169c1.648,0.946,3.49,1.553,5.377,1.775
				c-0.02-2.047-1.971-3.469-3.714-4.543c0.778-0.308,1.696-0.239,2.419,0.182c0.065-0.635-0.212-1.294-0.709-1.693
				c0.217,0.187,0.563-0.107,0.552-0.394c-0.011-0.286-0.214-0.522-0.354-0.772c-0.321-0.575-0.32-1.268-0.31-1.926
				c0.035-2.352,0.069-4.704,0.104-7.056c0.061,0.429,0.402,0.804,0.823,0.905c-0.027-0.932-0.115-1.86-0.203-2.788
				c-0.223-2.354-0.445-4.707-0.668-7.061"/>
		</g>
		<g>
			<path style="fill:#FFFFFF;" d="M461.044,267.681c0,0-80.703-72.198-85.846-76.747c-5.143-4.549-8.901-4.352-11.67-7.121
				c-2.769-2.769-4.154-4.747-15.429-4.549c-11.275,0.198-26.308-5.934-29.67-8.11c-3.363-2.176-8.11-0.593-11.275-1.825
				c-3.165-1.232-11.275-0.153-16.22,0c-4.945,0.153-5.341-4.9-3.363-10.637c1.978-5.736,17.011-9.297,18.989-8.11
				c1.978,1.187,9.89-2.176,9.89-2.176c-1.187-4.154-0.791-14.242-0.791-14.242s-8.308-3.56-11.473-4.747s-7.517-0.791-7.517-0.791
				s0.989-4.536,2.572-6.224c1.582-1.688,9.099-3.27,16.418-8.413c7.319-5.143,11.868-6.33,13.055-5.934s9.297,2.769,11.473,2.769
				c2.176,0,5.341-1.978,8.505-1.385s8.901,5.538,11.473,6.132c2.572,0.593,3.352,1.128,6.725,1.128c1.484,0,7.517,4.41,7.517,4.41
				s3.56,0.593,7.319,2.374c3.758,1.78,7.714,10.286,9.495,13.055c1.78,2.769,1.978,9.495,1.978,9.495s4.747,2.571,6.527,6.132
				c1.78,3.561,67.253,38.769,67.253,38.769S477.33,231.418,461.044,267.681z"/>
			<g>
				<path style="opacity:0.4;fill:#92E3A9;" d="M403.54,216.25c-14.46-12.94-26.46-23.66-28.34-25.32
					c-5.15-4.55-8.9-4.35-11.67-7.12s-4.16-4.74-15.43-4.55c-11.28,0.2-26.31-5.93-29.67-8.11c-3.36-2.17-8.11-0.59-11.28-1.82
					c-3.16-1.23-11.27-0.15-16.22,0c-4.94,0.15-5.34-4.9-3.36-10.64c1.98-5.73,17.01-9.29,18.99-8.11c1.98,1.19,9.89-2.17,9.89-2.17
					c-1.19-4.16-0.79-14.25-0.79-14.25s-8.31-3.56-11.47-4.74c-3.17-1.19-7.52-0.79-7.52-0.79s0.99-4.54,2.57-6.23
					c1.58-1.69,9.1-3.27,16.42-8.41s11.87-6.33,13.05-5.94c1.19,0.4,9.3,2.77,11.48,2.77c1.65,0,3.88-1.14,6.25-1.43
					c-1.92,1.07-3.25,3.11-2.89,4.2c0.57,1.72,2.18,6.1,2.27,6.38c-0.43-0.42-10.8-10.66-17.5-10.13
					c-5.79,0.45-11.67,10.2-10.68,17.36c0.99,7.16-1.41,7.16-0.11,12.5c1.29,5.34,2.48,12.86,0.5,15.83
					c-1.98,2.96-5.93-2.31-5.93-2.31s-5.01,2.51-5.01,8.24c0,5.74,5.95,6.13,9.54,6.73c3.58,0.59,16.6,7.75,25.52,8.13
					c8.92,0.37,8.92,0.37,8.92,0.37s-5.15-7.01-2.97-7.36c2.17-0.35,8.7,0.28,13.05,6.99c4.36,6.7,7.6,8.21,15.57,11.51
					C381.32,189.73,393.74,203.14,403.54,216.25z"/>
				<path style="opacity:0.4;fill:#92E3A9;" d="M443.06,177.9c-1.21-0.57-40-18.85-41.95-21.58c-1.98-2.77-4.35-3.4-6.53-6.15
					c-2.17-2.75-9.49-4.53-10.48-8.29c-0.99-3.76-2.18-15.17-3.96-16.58c-1.78-1.42-4.74-2.9-4.74-2.9l2.94,7.33
					c0,0-6.7-9.49-8.29-9.75c-1.58-0.25,1.72,6.9,1.43,6.68c-0.19-0.14-7.55-7-13.63-12.14c0.9,0.52,1.7,0.91,2.31,1.05
					c2.58,0.59,3.36,1.13,6.73,1.13c1.48,0,7.52,4.41,7.52,4.41s3.56,0.59,7.32,2.37c3.75,1.78,7.71,10.29,9.49,13.06
					c1.78,2.77,1.98,9.49,1.98,9.49s4.75,2.57,6.53,6.13C400.78,154.27,424.17,167.48,443.06,177.9z"/>
			</g>
			<path style="opacity:0.4;fill:#92E3A9;" d="M443.09,177.91c0,0-0.01,0-0.03-0.01c0.01,0,0.02,0,0.02,0
				C443.09,177.91,443.09,177.91,443.09,177.91z"/>
			<g>
				<path style="fill:none;stroke:#263238;stroke-linecap:round;stroke-linejoin:round;stroke-miterlimit:10;" d="M461.044,267.681
					c0,0-80.703-72.198-85.846-76.747c-5.143-4.549-8.901-4.352-11.67-7.121c-2.769-2.769-4.154-4.747-15.429-4.549
					c-11.275,0.198-26.308-5.934-29.67-8.11c-3.363-2.176-8.11-0.593-11.275-1.825c-3.165-1.232-11.275-0.153-16.22,0
					c-4.945,0.153-5.341-4.9-3.363-10.637c1.978-5.736,17.011-9.297,18.989-8.11c1.978,1.187,9.89-2.176,9.89-2.176
					c-1.187-4.154-0.791-14.242-0.791-14.242s-8.308-3.56-11.473-4.747s-7.517-0.791-7.517-0.791s0.989-4.536,2.572-6.224
					c1.582-1.688,9.099-3.27,16.418-8.413c7.319-5.143,11.868-6.33,13.055-5.934s9.297,2.769,11.473,2.769
					c2.176,0,5.341-1.978,8.505-1.385s8.901,5.538,11.473,6.132c2.572,0.593,3.352,1.128,6.725,1.128c1.484,0,7.517,4.41,7.517,4.41
					s3.56,0.593,7.319,2.374c3.758,1.78,7.714,10.286,9.495,13.055c1.78,2.769,1.978,9.495,1.978,9.495s4.747,2.571,6.527,6.132
					c1.78,3.561,67.253,38.769,67.253,38.769"/>
				<path style="fill:none;stroke:#263238;stroke-linecap:round;stroke-linejoin:round;stroke-miterlimit:10;" d="M315.659,134.165
					c0,0,0.923-7.781,0-8.868"/>
				<path style="fill:none;stroke:#263238;stroke-linecap:round;stroke-linejoin:round;stroke-miterlimit:10;" d="M340.055,115.11
					c0,0,13.451,11.394,14.505,12.092"/>
				<path style="fill:none;stroke:#263238;stroke-linecap:round;stroke-linejoin:round;stroke-miterlimit:10;" d="M352.692,111.278
					c1.846,1.156,16.769,14.382,21.648,17.415"/>
				<path style="fill:none;stroke:#263238;stroke-linecap:round;stroke-linejoin:round;stroke-miterlimit:10;" d="M393.198,146.033
					c-1.451-0.857-5.275-2.703-5.67-4.154"/>
				<path style="fill:none;stroke:#263238;stroke-linecap:round;stroke-linejoin:round;stroke-miterlimit:10;" d="M316.451,148.407
					c0,0,0.791,3.231,0,4.813"/>
				<path style="fill:none;stroke:#263238;stroke-linecap:round;stroke-linejoin:round;stroke-miterlimit:10;" d="M304.582,158.626
					c0,0-1.846,5.143,2.505,8.571"/>
				<path style="fill:none;stroke:#263238;stroke-linecap:round;stroke-linejoin:round;stroke-miterlimit:10;" d="M322.517,109.836
					c-2.242,2.241-2.638,5.274-2.638,5.274"/>
				<path style="fill:none;stroke:#263238;stroke-linecap:round;stroke-linejoin:round;stroke-miterlimit:10;" d="M301.945,125.296
					c0,0,1.059,3.576,5.143,5.271"/>
				<path style="fill:none;stroke:#263238;stroke-linecap:round;stroke-linejoin:round;stroke-miterlimit:10;" d="M361.152,181.613
					c-2.768-4.394-8.46-10.591-8.46-10.591"/>
			</g>
		</g>
	</g>
</g>
<g id="Left_hand">
	<g>
		<path style="fill:#FFFFFF;" d="M84.486,445.308c0,0,64.602-42.462,68.558-47.942c3.956-5.481,7.121-7.97,7.121-7.97
			s1.846-15.824,6.593-24c4.747-8.176,6.593-14.242,8.703-18.461c2.11-4.22,12.132-7.385,15.033-8.967
			c2.901-1.582,7.912-4.747,10.813-4.747c2.901,0,6.33,1.846,6.33,1.846s9.758-5.011,14.242-1.846c0,0,11.077,0.528,13.714,0.264
			c2.637-0.264,6.593,1.582,6.593,1.582s6.593-4.734,11.077-2.894c4.484,1.839,6.615,2.631,6.736,5.268
			c0.121,2.637-1.11,11.605-1.11,11.605l-2.198-0.001c0,0-7.385,9.604-8.176,11.527c-0.791,1.923-5.011,12.473-5.011,12.473
			s5.539-4.22,8.967-7.385c3.429-3.165,9.495-9.231,15.824-10.813c6.33-1.582,10.813,1.956,10.813,5.725
			c0,0-7.385,5.879-8.967,7.725c-1.582,1.846-4.44,6.593-7.627,10.022c-3.187,3.429-10.571,17.67-16.901,24.527
			c-6.33,6.857-34.022,21.626-40.352,23.736c0,0-38.506,26.901-55.385,49.582C149.879,476.165,103.994,476.429,84.486,445.308z"/>
		<g>
			<path style="opacity:0.4;fill:#92E3A9;" d="M209.75,420.78c0.55,0.56,2.8,0.9,5.97,0.96c-4.66,2.39-8.54,4.2-10.46,4.84
				c0,0-25.18,17.59-43.74,36.32c6.39-10.17,18.66-22.86,23.22-25.5c6.35-3.7,18.55-15.64,18.55-15.64S207.92,418.93,209.75,420.78z
				"/>
			<path style="opacity:0.4;fill:#92E3A9;" d="M252.47,365.66c2.09-1.93,5.15-4.93,8.66-7.33c-5.04,5.28-7.84,12.08-7.84,12.08
				c-1.22,6.63-12.66,20.3-12.66,20.3c3.69-11.86,0.52-14.24,1.56-17.67c1.03-3.42,1.71-11.84,1.71-11.84s2-3.45,4.11-4.24
				c2.11-0.8,7.65-14.77,8.68-16.66c1.04-1.89-6.83-4.97-8.94-5.23c-2.11-0.27-2.9,3.42-7.12,5.23c-4.22,1.8-9.52,5.13-11.47,7.07
				c-1.88,1.88-5.34,10.52-5.56,11.05c0.15-0.6,2.54-10.23,3.16-12.15c0.52-1.6,5.59-4.55,7.47-5.6c-3.12,1.45-4.87-1.3-7.47-3.8
				c-2.79-2.68-6.95-3.53-11.5-2.14c-4.55,1.39-7.6,4.82-7.62,4.56c-0.02-0.27-6.8-1.45-8.97-0.8c-2.17,0.66-7.28,2.95-7.28,2.95
				s-4.62-2.66-12.21,4.83c-3.17,3.13-13.72,27.04-12.14,24.14c1.54-2.81,8.47-11.4,8.9-11.93c-0.49,1.12-14.48,32.54-17.34,34.49
				c-2.9,1.99-3.69,9.08-13.97,14.89c-9.78,5.51-47.5,29.22-51.24,31.57c17.86-11.86,56.62-37.85,59.65-42.06
				c3.96-5.48,7.12-7.97,7.12-7.97s1.85-15.83,6.6-24c4.75-8.18,6.59-14.25,8.7-18.47s12.13-7.38,15.03-8.96
				c2.91-1.59,7.92-4.75,10.82-4.75c2.9,0,6.33,1.85,6.33,1.85s9.76-5.02,14.24-1.85c0,0,11.08,0.53,13.71,0.26
				c2.64-0.26,6.6,1.59,6.6,1.59s6.59-4.74,11.07-2.9c4.49,1.84,6.62,2.63,6.74,5.27c0.12,2.64-1.108,11.603-1.108,11.603
				l-2.202-0.003c0,0-7.38,9.61-8.17,11.53c-0.79,1.92-5.01,12.47-5.01,12.47S249.04,368.82,252.47,365.66z"/>
			<path style="opacity:0.4;fill:#92E3A9;" d="M279.11,360.57c0,0-7.38,5.88-8.97,7.73c-0.95,1.11-2.36,3.27-4.04,5.56
				c1.32-4.16,1.69-8.2,1.69-8.2s2.37-3.69,6.33-5.01c1.59-0.53,3.39-0.55,4.97-0.38C279.11,360.37,279.11,360.47,279.11,360.57z"/>
		</g>
		<g>
			<path style="fill:none;stroke:#263238;stroke-linecap:round;stroke-linejoin:round;stroke-miterlimit:10;" d="M84.486,445.308
				c0,0,64.602-42.462,68.558-47.942c3.956-5.481,7.121-7.97,7.121-7.97s1.846-15.824,6.593-24
				c4.747-8.176,6.593-14.242,8.703-18.461c2.11-4.22,12.132-7.385,15.033-8.967c2.901-1.582,7.912-4.747,10.813-4.747
				c2.901,0,6.33,1.846,6.33,1.846s9.758-5.011,14.242-1.846c0,0,11.077,0.528,13.714,0.264c2.637-0.264,6.593,1.582,6.593,1.582
				s6.593-4.734,11.077-2.894c4.484,1.839,6.615,2.631,6.736,5.268c0.121,2.637-1.11,11.605-1.11,11.605l-2.198-0.001
				c0,0-7.385,9.604-8.176,11.527c-0.791,1.923-5.011,12.473-5.011,12.473s5.539-4.22,8.967-7.385
				c3.429-3.165,9.495-9.231,15.824-10.813c6.33-1.582,10.813,1.956,10.813,5.725c0,0-7.385,5.879-8.967,7.725
				c-1.582,1.846-4.44,6.593-7.627,10.022c-3.187,3.429-10.571,17.67-16.901,24.527c-6.33,6.857-34.022,21.626-40.352,23.736
				c0,0-38.506,26.901-55.385,49.582"/>
			<path style="fill:none;stroke:#263238;stroke-linecap:round;stroke-linejoin:round;stroke-miterlimit:10;" d="M243.505,373.044
				c0,0,1.582,7.912-1.582,15.033"/>
			<path style="fill:none;stroke:#263238;stroke-linecap:round;stroke-linejoin:round;stroke-miterlimit:10;" d="M233.22,341.132
				c0,0,4.484-1.846,8.967-6.066"/>
			<path style="fill:none;stroke:#263238;stroke-linecap:round;stroke-linejoin:round;stroke-miterlimit:10;" d="M256.692,349.044
				c0,0,1.451-2.901,1.714-5.539"/>
			<path style="fill:none;stroke:#263238;stroke-linecap:round;stroke-linejoin:round;stroke-miterlimit:10;" d="M221.879,333.22
				c0,0-5.143-0.264-8.835,3.033"/>
			<path style="fill:none;stroke:#263238;stroke-linecap:round;stroke-linejoin:round;stroke-miterlimit:10;" d="M207.637,335.066
				c0,0-7.912,3.692-10.681,3.692c-2.769,0-7.253,3.692-7.253,4.747"/>
			<path style="fill:none;stroke:#263238;stroke-linecap:round;stroke-linejoin:round;stroke-miterlimit:10;" d="M160.165,389.396
				c0,0,3.561-5.275,5.67-11.473"/>
			<path style="fill:none;stroke:#263238;stroke-linecap:round;stroke-linejoin:round;stroke-miterlimit:10;" d="M234.934,343.505
				c0,0-5.011,1.319-6.725,5.539c-1.714,4.22-9.626,18.857-9.626,18.857"/>
			<path style="fill:none;stroke:#263238;stroke-linecap:round;stroke-linejoin:round;stroke-miterlimit:10;" d="M209.747,341.132
				c-1.055,2.505-12.923,24.527-12.923,24.527"/>
		</g>
	</g>
</g>
</svg>
